<svg width="1" height="1" viewBox="0 0 1 1" fill="none" xmlns="http://www.w3.org/2000/svg">
<g clip-path="url(#clip0)">
<path fill-rule="evenodd" clip-rule="evenodd" d="M0.0624948 0.281241C0.0624948 0.272953 0.0657872 0.265004 0.0716477 0.259144C0.0775082 0.253283 0.0854568 0.249991 0.0937448 0.249991H0.830807L0.63412 0.0533661C0.628252 0.0474982 0.624955 0.0395395 0.624955 0.0312411C0.624955 0.0229426 0.628252 0.014984 0.63412 0.00911605C0.639988 0.00324816 0.647946 -4.8399e-05 0.656245 -4.8399e-05C0.664543 -4.8399e-05 0.672502 0.00324816 0.67837 0.00911605L0.92837 0.259116C0.93128 0.262019 0.933589 0.265467 0.935164 0.269264C0.93674 0.273061 0.937551 0.277131 0.937551 0.281241C0.937551 0.285352 0.93674 0.289422 0.935164 0.293218C0.933589 0.297015 0.93128 0.300463 0.92837 0.303366L0.67837 0.553366C0.672502 0.559234 0.664543 0.562531 0.656245 0.562531C0.647946 0.562531 0.639988 0.559234 0.63412 0.553366C0.628252 0.547498 0.624955 0.53954 0.624955 0.531241C0.624955 0.522943 0.628252 0.514984 0.63412 0.509116L0.830807 0.312491H0.0937448C0.0854568 0.312491 0.0775082 0.309199 0.0716477 0.303338C0.0657872 0.297478 0.0624948 0.289529 0.0624948 0.281241ZM0.937495 0.718741C0.937495 0.710453 0.934202 0.702504 0.928342 0.696644C0.922481 0.690783 0.914533 0.687491 0.906245 0.687491H0.169182L0.36587 0.490866C0.368775 0.487961 0.37108 0.484511 0.372653 0.480715C0.374225 0.476919 0.375034 0.47285 0.375034 0.468741C0.375034 0.464632 0.374225 0.460563 0.372653 0.456767C0.37108 0.452971 0.368775 0.449522 0.36587 0.446616C0.362964 0.443711 0.359515 0.441406 0.355719 0.439833C0.351923 0.438261 0.347854 0.437452 0.343745 0.437452C0.339636 0.437452 0.335567 0.438261 0.331771 0.439833C0.327975 0.441406 0.324525 0.443711 0.32162 0.446616L0.0716198 0.696616C0.0687096 0.699519 0.0664007 0.702967 0.0648253 0.706764C0.0632499 0.710561 0.062439 0.714631 0.062439 0.718741C0.062439 0.722851 0.0632499 0.726922 0.0648253 0.730718C0.0664007 0.734515 0.0687096 0.737963 0.0716198 0.740866L0.32162 0.990866C0.327488 0.996734 0.335446 1.00003 0.343745 1.00003C0.352043 1.00003 0.360002 0.996734 0.36587 0.990866C0.371738 0.984998 0.375034 0.97704 0.375034 0.968741C0.375034 0.960443 0.371738 0.952484 0.36587 0.946616L0.169182 0.749991H0.906245C0.914533 0.749991 0.922481 0.746699 0.928342 0.740838C0.934202 0.734978 0.937495 0.727029 0.937495 0.718741Z" fill="#343A40"/>
</g>
<defs>
<clipPath id="clip0">
<rect width="1" height="1" fill="white"/>
</clipPath>
</defs>
</svg>
