<svg width="1" height="1" viewBox="0 0 1 1" fill="none" xmlns="http://www.w3.org/2000/svg">
<g clip-path="url(#clip0)">
<path fill-rule="evenodd" clip-rule="evenodd" d="M0.937505 0.281241C0.937505 0.272953 0.934213 0.265004 0.928352 0.259144C0.922492 0.253283 0.914543 0.249991 0.906255 0.249991H0.169193L0.36588 0.0533661C0.371748 0.0474982 0.375045 0.0395395 0.375045 0.0312411C0.375045 0.0229426 0.371748 0.014984 0.36588 0.00911605C0.360012 0.00324816 0.352054 -4.8399e-05 0.343755 -4.8399e-05C0.335457 -4.8399e-05 0.327498 0.00324816 0.32163 0.00911605L0.0716302 0.259116C0.06872 0.262019 0.0664111 0.265467 0.0648357 0.269264C0.0632603 0.273061 0.0624493 0.277131 0.0624493 0.281241C0.0624493 0.285352 0.0632603 0.289422 0.0648357 0.293218C0.0664111 0.297015 0.06872 0.300463 0.0716302 0.303366L0.32163 0.553366C0.327498 0.559234 0.335457 0.562531 0.343755 0.562531C0.352054 0.562531 0.360012 0.559234 0.36588 0.553366C0.371748 0.547498 0.375045 0.53954 0.375045 0.531241C0.375045 0.522943 0.371748 0.514984 0.36588 0.509116L0.169193 0.312491H0.906255C0.914543 0.312491 0.922492 0.309199 0.928352 0.303338C0.934213 0.297478 0.937505 0.289529 0.937505 0.281241ZM0.0625052 0.718741C0.0625052 0.710453 0.0657976 0.702504 0.0716581 0.696644C0.0775186 0.690783 0.0854672 0.687491 0.0937552 0.687491H0.830818L0.63413 0.490866C0.631225 0.487961 0.62892 0.484511 0.627347 0.480715C0.625775 0.476919 0.624966 0.47285 0.624966 0.468741C0.624966 0.464632 0.625775 0.460563 0.627347 0.456767C0.62892 0.452971 0.631225 0.449522 0.63413 0.446616C0.637036 0.443711 0.640485 0.441406 0.644281 0.439833C0.648077 0.438261 0.652146 0.437452 0.656255 0.437452C0.660364 0.437452 0.664433 0.438261 0.668229 0.439833C0.672025 0.441406 0.675475 0.443711 0.67838 0.446616L0.92838 0.696616C0.93129 0.699519 0.933599 0.702967 0.935175 0.706764C0.93675 0.710561 0.937561 0.714631 0.937561 0.718741C0.937561 0.722851 0.93675 0.726922 0.935175 0.730718C0.933599 0.734515 0.93129 0.737963 0.92838 0.740866L0.67838 0.990866C0.672512 0.996734 0.664554 1.00003 0.656255 1.00003C0.647957 1.00003 0.639998 0.996734 0.63413 0.990866C0.628262 0.984998 0.624966 0.97704 0.624966 0.968741C0.624966 0.960443 0.628262 0.952484 0.63413 0.946616L0.830818 0.749991H0.0937552C0.0854672 0.749991 0.0775186 0.746699 0.0716581 0.740838C0.0657976 0.734978 0.0625052 0.727029 0.0625052 0.718741Z" fill="#343A40"/>
</g>
<defs>
<clipPath id="clip0">
<rect width="1" height="1" fill="white"/>
</clipPath>
</defs>
</svg>
