<svg width="1" height="1" viewBox="0 0 1 1" fill="none" xmlns="http://www.w3.org/2000/svg">
<path fill-rule="evenodd" clip-rule="evenodd" d="M0.125 0.84375V0.4375H0.1875V0.84375C0.1875 0.852038 0.190792 0.859987 0.196653 0.865847C0.202513 0.871708 0.210462 0.875 0.21875 0.875H0.78125C0.789538 0.875 0.797487 0.871708 0.803347 0.865847C0.809208 0.859987 0.8125 0.852038 0.8125 0.84375V0.4375H0.875V0.84375C0.875 0.868614 0.865123 0.89246 0.847541 0.910041C0.82996 0.927623 0.806114 0.9375 0.78125 0.9375H0.21875C0.193886 0.9375 0.17004 0.927623 0.152459 0.910041C0.134877 0.89246 0.125 0.868614 0.125 0.84375ZM0.8125 0.15625V0.375L0.6875 0.25V0.15625C0.6875 0.147962 0.690792 0.140013 0.696653 0.134153C0.702513 0.128292 0.710462 0.125 0.71875 0.125H0.78125C0.789538 0.125 0.797487 0.128292 0.803347 0.134153C0.809208 0.140013 0.8125 0.147962 0.8125 0.15625Z" fill="white"/>
<path fill-rule="evenodd" clip-rule="evenodd" d="M0.455851 0.0937386C0.467572 0.0820217 0.483466 0.0754395 0.500039 0.0754395C0.516612 0.0754395 0.532507 0.0820217 0.544227 0.0937386L0.959665 0.509114C0.965533 0.514982 0.968828 0.52294 0.968828 0.531239C0.968828 0.539537 0.965533 0.547496 0.959665 0.553364C0.953797 0.559232 0.945838 0.562528 0.93754 0.562528C0.929241 0.562528 0.921283 0.559232 0.915415 0.553364L0.500039 0.137926L0.0846645 0.553364C0.0787965 0.559232 0.0708379 0.562528 0.0625395 0.562528C0.054241 0.562528 0.0462824 0.559232 0.0404145 0.553364C0.0345465 0.547496 0.03125 0.539537 0.03125 0.531239C0.03125 0.52294 0.0345465 0.514982 0.0404145 0.509114L0.455851 0.0937386Z" fill="white"/>
</svg>
