<svg width="142" height="65" viewBox="0 0 142 65" fill="none" xmlns="http://www.w3.org/2000/svg">
<rect width="142" height="64.0602" transform="translate(0 0.93985)" fill="white"/>
<rect y="1" width="142" height="64" rx="5" fill="#E9ECEF"/>
<path d="M77.476 11.0699V27.7999H81.3166V32.6058H77.476V38.9398H71.0615V32.6058H59.0569V27.7999L70.1365 11.0699H77.476ZM63.903 27.7999H71.3631V18.51C71.3631 18.148 71.3765 17.7123 71.4033 17.2029L71.4435 16.0769L63.903 27.7999ZM91.5517 28.745V38.9398H85.0165V11.4922H95.8347C98.2477 11.4922 100.091 11.7536 101.364 12.2764C102.651 12.7858 103.798 13.7041 104.803 15.0312C105.808 16.3584 106.311 17.9871 106.311 19.9175C106.311 21.2715 106.043 22.5919 105.507 23.8788C104.971 25.1658 104.213 26.1779 103.235 26.9152C102.256 27.6525 101.304 28.1418 100.379 28.3831C99.4676 28.6244 98.0332 28.745 96.076 28.745H91.5517ZM91.3305 23.7582H95.513C97.1083 23.7582 98.2276 23.3895 98.8711 22.6522C99.5145 21.9149 99.8363 21.0704 99.8363 20.1186C99.8363 19.006 99.4743 18.1212 98.7504 17.4643C98.0399 16.8075 96.9541 16.479 95.4929 16.479H91.3305V23.7582ZM116.405 33.5106H127.324V38.9398H109.89V11.4922H116.405V33.5106Z" fill="#1C3553"/>
<path d="M43.191 14.667L17.7383 16.9534L12.0493 41.8681L33.985 54.9811L53.2308 38.1695L43.191 14.667Z" fill="#FEDD00"/>
<path d="M49.2649 9.78625H46.9771V38.2193H49.2649V9.78625Z" fill="#1C3553"/>
<path d="M42.6624 10.1641V12.5771H39.6417V22.3631H36.7461V12.5771H33.7075V10.1641H42.6624Z" fill="#1C3553"/>
<path d="M37.8275 35.9651H42.6802V38.3781H34.9319V26.1791H37.8275V35.9651Z" fill="#1C3553"/>
</svg>
